<?xml version="1.0" encoding="UTF-8" standalone="no"?>
<svg
   xmlns:dc="http://purl.org/dc/elements/1.1/"
   xmlns:cc="http://creativecommons.org/ns#"
   xmlns:rdf="http://www.w3.org/1999/02/22-rdf-syntax-ns#"
   xmlns:svg="http://www.w3.org/2000/svg"
   xmlns="http://www.w3.org/2000/svg"
   xmlns:sodipodi="http://sodipodi.sourceforge.net/DTD/sodipodi-0.dtd"
   xmlns:inkscape="http://www.inkscape.org/namespaces/inkscape"
   id="svg3395"
   xml:space="preserve"
   enable-background="new 0 0 16 16"
   viewBox="0 0 16 16"
   y="0px"
   x="0px"
   version="1.1"
   inkscape:version="0.91 r13725"
   sodipodi:docname="tag2.svg"
   inkscape:export-filename="/Users/hiromu/workspace/pdi-git-plugin/src/main/resources/org/pentaho/di/git/spoon/images/tag.png"
   inkscape:export-xdpi="90"
   inkscape:export-ydpi="90"><sodipodi:namedview
     pagecolor="#ffffff"
     bordercolor="#666666"
     borderopacity="1"
     objecttolerance="10"
     gridtolerance="10000"
     guidetolerance="10"
     inkscape:pageopacity="0"
     inkscape:pageshadow="2"
     inkscape:window-width="1649"
     inkscape:window-height="1117"
     id="namedview14"
     showgrid="true"
     inkscape:zoom="32.040353"
     inkscape:cx="9.5187497"
     inkscape:cy="9.6007027"
     inkscape:window-x="68"
     inkscape:window-y="20"
     inkscape:window-maximized="0"
     inkscape:current-layer="svg3395"><inkscape:grid
       type="xygrid"
       id="grid4146" /></sodipodi:namedview><metadata
     id="metadata3414"><rdf:RDF><cc:Work
         rdf:about=""><dc:format>image/svg+xml</dc:format><dc:type
           rdf:resource="http://purl.org/dc/dcmitype/StillImage" /><dc:title /></cc:Work></rdf:RDF></metadata><defs
     id="defs3412" /><g
     id="Layer_2"
     style="fill:none;stroke:none;stroke-opacity:1"><g
       id="Layer_2_1_"
       style="fill:none;stroke:none;stroke-opacity:1"><rect
         id="rect3399"
         height="16"
         width="16"
         style="fill:none;stroke:none;stroke-opacity:1"
         fill="none" /></g></g><path
     style="fill:#ffffff;fill-opacity:1;stroke:none;stroke-width:1;stroke-miterlimit:4;stroke-dasharray:none;stroke-opacity:1"
     d="M 2.8750101,4.83184 C 2.561256,4.6828448 2.3093469,4.4273512 2.1546186,4.101198 2.0458581,3.8719408 2.0305774,3.7971312 2.0312724,3.4973333 2.0323037,3.0524728 2.1620215,2.7477698 2.4773258,2.4495681 2.800113,2.1442895 3.0757084,2.0316863 3.4990037,2.0321294 3.786166,2.0324301 3.8807138,2.0503858 4.0869495,2.1437873 4.3980364,2.2846745 4.7072783,2.5946747 4.8548766,2.9135974 4.9491934,3.1173922 4.9667322,3.2086239 4.9670964,3.4973333 4.9674749,3.7978468 4.9521139,3.8721714 4.8409671,4.107584 4.6866734,4.4343834 4.4440079,4.6791353 4.1229973,4.8317269 3.9100067,4.9329714 3.8362388,4.9465451 3.4990037,4.9465451 c -0.3370912,0 -0.4110938,-0.013603 -0.6239936,-0.1147051 z"
     id="path4141"
     inkscape:connector-curvature="0" /><path
     style="fill:none;fill-opacity:1;stroke:#3d6380;stroke-width:2;stroke-linecap:butt;stroke-linejoin:round;stroke-miterlimit:4;stroke-dasharray:none;stroke-opacity:1"
     d="M 1.0332031 1.0019531 L 1.0332031 6.9453125 L 1.1230469 6.9453125 L 1.046875 7.0214844 L 9.0878906 15.0625 L 15.078125 9.0722656 L 7.0371094 1.03125 L 7.0078125 1.0605469 L 7.0078125 1.0019531 L 1.0332031 1.0019531 z "
     id="rect3344" /><ellipse
     style="fill:#3d6380;fill-opacity:1;stroke:none;stroke-width:2;stroke-linecap:butt;stroke-linejoin:round;stroke-miterlimit:4;stroke-dasharray:none;stroke-opacity:1"
     id="path4205"
     cx="4.5156054"
     cy="4.4687896"
     rx="1.5143459"
     ry="1.4987406" /></svg>